<mxfile modified="2024-01-22T09:09:49.826Z" host="app.diagrams.net" agent="Mozilla/5.0 (Windows NT 10.0; Win64; x64) AppleWebKit/537.36 (KHTML, like Gecko) Chrome/119.0.0.0 Safari/537.36 OPR/105.0.0.0" etag="DrMGA6Cdm6zLEaDICA-1" version="22.1.21" type="device">
  <diagram id="Ht1M8jgEwFfnCIfOTk4-" name="Page-1">
    <mxGraphModel dx="1420" dy="669" grid="1" gridSize="10" guides="1" tooltips="1" connect="1" arrows="1" fold="1" page="1" pageScale="1" pageWidth="1169" pageHeight="827" math="0" shadow="0">
      <root>
        <mxCell id="0" />
        <mxCell id="1" parent="0" />
        <mxCell id="fJkiHH_dXdpL3qH0rlqj-2" value="AWS Cloud" style="points=[[0,0],[0.25,0],[0.5,0],[0.75,0],[1,0],[1,0.25],[1,0.5],[1,0.75],[1,1],[0.75,1],[0.5,1],[0.25,1],[0,1],[0,0.75],[0,0.5],[0,0.25]];outlineConnect=0;gradientColor=none;html=1;whiteSpace=wrap;fontSize=12;fontStyle=0;container=1;pointerEvents=0;collapsible=0;recursiveResize=0;shape=mxgraph.aws4.group;grIcon=mxgraph.aws4.group_aws_cloud;strokeColor=#232F3E;fillColor=none;verticalAlign=top;align=left;spacingLeft=30;fontColor=#232F3E;dashed=0;" vertex="1" parent="1">
          <mxGeometry x="100" y="130" width="850" height="550" as="geometry" />
        </mxCell>
        <mxCell id="UEzPUAAOIrF-is8g5C7q-116" value="Amazon S3" style="outlineConnect=0;fontColor=#232F3E;gradientColor=#60A337;gradientDirection=north;fillColor=#277116;strokeColor=#ffffff;dashed=0;verticalLabelPosition=bottom;verticalAlign=top;align=center;html=1;fontSize=12;fontStyle=0;aspect=fixed;shape=mxgraph.aws4.resourceIcon;resIcon=mxgraph.aws4.s3;labelBackgroundColor=#ffffff;" parent="fJkiHH_dXdpL3qH0rlqj-2" vertex="1">
          <mxGeometry x="380" y="112" width="50" height="50" as="geometry" />
        </mxCell>
        <mxCell id="UEzPUAAOIrF-is8g5C7q-115" value="Lambda&lt;br&gt;function" style="outlineConnect=0;fontColor=#232F3E;gradientColor=none;fillColor=#D05C17;strokeColor=none;dashed=0;verticalLabelPosition=bottom;verticalAlign=top;align=center;html=1;fontSize=12;fontStyle=0;aspect=fixed;pointerEvents=1;shape=mxgraph.aws4.lambda_function;labelBackgroundColor=#ffffff;" parent="fJkiHH_dXdpL3qH0rlqj-2" vertex="1">
          <mxGeometry x="600" y="104" width="48" height="48" as="geometry" />
        </mxCell>
        <mxCell id="fJkiHH_dXdpL3qH0rlqj-21" value="" style="edgeStyle=orthogonalEdgeStyle;html=1;endArrow=none;elbow=vertical;startArrow=block;startFill=1;strokeColor=#545B64;rounded=0;" edge="1" parent="fJkiHH_dXdpL3qH0rlqj-2" target="UEzPUAAOIrF-is8g5C7q-115">
          <mxGeometry width="100" relative="1" as="geometry">
            <mxPoint x="446" y="127.5" as="sourcePoint" />
            <mxPoint x="546" y="127.5" as="targetPoint" />
            <Array as="points" />
          </mxGeometry>
        </mxCell>
        <mxCell id="fJkiHH_dXdpL3qH0rlqj-22" value="" style="edgeStyle=orthogonalEdgeStyle;html=1;endArrow=block;elbow=vertical;startArrow=none;endFill=1;strokeColor=#545B64;rounded=0;" edge="1" parent="fJkiHH_dXdpL3qH0rlqj-2" target="UEzPUAAOIrF-is8g5C7q-115">
          <mxGeometry width="100" relative="1" as="geometry">
            <mxPoint x="446" y="151" as="sourcePoint" />
            <mxPoint x="546" y="151" as="targetPoint" />
            <Array as="points">
              <mxPoint x="446" y="152" />
            </Array>
          </mxGeometry>
        </mxCell>
        <mxCell id="fJkiHH_dXdpL3qH0rlqj-23" value="stocker un rapport" style="text;html=1;align=center;verticalAlign=middle;resizable=0;points=[];autosize=1;strokeColor=none;fillColor=none;" vertex="1" parent="fJkiHH_dXdpL3qH0rlqj-2">
          <mxGeometry x="460" y="90" width="120" height="30" as="geometry" />
        </mxCell>
        <mxCell id="fJkiHH_dXdpL3qH0rlqj-24" value="lancer&amp;nbsp;" style="text;html=1;align=center;verticalAlign=middle;resizable=0;points=[];autosize=1;strokeColor=none;fillColor=none;" vertex="1" parent="fJkiHH_dXdpL3qH0rlqj-2">
          <mxGeometry x="490" y="162" width="60" height="30" as="geometry" />
        </mxCell>
        <mxCell id="fJkiHH_dXdpL3qH0rlqj-25" value="" style="sketch=0;outlineConnect=0;fontColor=#232F3E;gradientColor=none;fillColor=#C925D1;strokeColor=none;dashed=0;verticalLabelPosition=bottom;verticalAlign=top;align=center;html=1;fontSize=12;fontStyle=0;aspect=fixed;shape=mxgraph.aws4.cloud9;" vertex="1" parent="fJkiHH_dXdpL3qH0rlqj-2">
          <mxGeometry x="100" y="82" width="78" height="50" as="geometry" />
        </mxCell>
        <mxCell id="fJkiHH_dXdpL3qH0rlqj-29" value="" style="edgeStyle=orthogonalEdgeStyle;html=1;endArrow=block;elbow=vertical;startArrow=none;endFill=1;strokeColor=#545B64;rounded=0;" edge="1" parent="fJkiHH_dXdpL3qH0rlqj-2" source="fJkiHH_dXdpL3qH0rlqj-25" target="UEzPUAAOIrF-is8g5C7q-116">
          <mxGeometry width="100" relative="1" as="geometry">
            <mxPoint x="228" y="120" as="sourcePoint" />
            <mxPoint x="328" y="120" as="targetPoint" />
            <Array as="points" />
          </mxGeometry>
        </mxCell>
        <mxCell id="fJkiHH_dXdpL3qH0rlqj-30" value="stocker les fichiers csv&amp;nbsp;" style="text;html=1;align=center;verticalAlign=middle;resizable=0;points=[];autosize=1;strokeColor=none;fillColor=none;" vertex="1" parent="fJkiHH_dXdpL3qH0rlqj-2">
          <mxGeometry x="190" y="82" width="150" height="30" as="geometry" />
        </mxCell>
        <mxCell id="fJkiHH_dXdpL3qH0rlqj-32" value="" style="endArrow=classic;html=1;rounded=0;" edge="1" parent="fJkiHH_dXdpL3qH0rlqj-2">
          <mxGeometry width="50" height="50" relative="1" as="geometry">
            <mxPoint x="140" y="90" as="sourcePoint" />
            <mxPoint x="140" y="-30" as="targetPoint" />
          </mxGeometry>
        </mxCell>
        <mxCell id="fJkiHH_dXdpL3qH0rlqj-35" value="" style="sketch=0;outlineConnect=0;fontColor=#232F3E;gradientColor=none;fillColor=#8C4FFF;strokeColor=none;dashed=0;verticalLabelPosition=bottom;verticalAlign=top;align=center;html=1;fontSize=12;fontStyle=0;aspect=fixed;pointerEvents=1;shape=mxgraph.aws4.glue_crawlers;" vertex="1" parent="fJkiHH_dXdpL3qH0rlqj-2">
          <mxGeometry x="380" y="270" width="50" height="50" as="geometry" />
        </mxCell>
        <mxCell id="fJkiHH_dXdpL3qH0rlqj-36" value="Cloud9 IDE" style="text;html=1;align=center;verticalAlign=middle;resizable=0;points=[];autosize=1;strokeColor=none;fillColor=none;" vertex="1" parent="fJkiHH_dXdpL3qH0rlqj-2">
          <mxGeometry x="99" y="132" width="80" height="30" as="geometry" />
        </mxCell>
        <mxCell id="fJkiHH_dXdpL3qH0rlqj-37" value="Glue Crawler" style="text;html=1;align=center;verticalAlign=middle;resizable=0;points=[];autosize=1;strokeColor=none;fillColor=none;" vertex="1" parent="fJkiHH_dXdpL3qH0rlqj-2">
          <mxGeometry x="360" y="320" width="90" height="30" as="geometry" />
        </mxCell>
        <mxCell id="fJkiHH_dXdpL3qH0rlqj-40" value="" style="endArrow=classic;html=1;rounded=0;" edge="1" parent="fJkiHH_dXdpL3qH0rlqj-2" target="fJkiHH_dXdpL3qH0rlqj-35">
          <mxGeometry width="50" height="50" relative="1" as="geometry">
            <mxPoint x="405" y="190" as="sourcePoint" />
            <mxPoint x="360.5" y="192" as="targetPoint" />
          </mxGeometry>
        </mxCell>
        <mxCell id="fJkiHH_dXdpL3qH0rlqj-42" value="" style="sketch=0;outlineConnect=0;fontColor=#232F3E;gradientColor=none;fillColor=#C925D1;strokeColor=none;dashed=0;verticalLabelPosition=bottom;verticalAlign=top;align=center;html=1;fontSize=12;fontStyle=0;aspect=fixed;pointerEvents=1;shape=mxgraph.aws4.table;" vertex="1" parent="fJkiHH_dXdpL3qH0rlqj-2">
          <mxGeometry x="615" y="270" width="50" height="50" as="geometry" />
        </mxCell>
        <mxCell id="fJkiHH_dXdpL3qH0rlqj-43" value="Glue Table" style="text;html=1;align=center;verticalAlign=middle;resizable=0;points=[];autosize=1;strokeColor=none;fillColor=none;" vertex="1" parent="fJkiHH_dXdpL3qH0rlqj-2">
          <mxGeometry x="600" y="320" width="80" height="30" as="geometry" />
        </mxCell>
        <mxCell id="fJkiHH_dXdpL3qH0rlqj-44" value="" style="edgeStyle=orthogonalEdgeStyle;html=1;endArrow=block;elbow=vertical;startArrow=none;endFill=1;strokeColor=#545B64;rounded=0;" edge="1" parent="fJkiHH_dXdpL3qH0rlqj-2">
          <mxGeometry width="100" relative="1" as="geometry">
            <mxPoint x="446" y="294.5" as="sourcePoint" />
            <mxPoint x="600" y="295.5" as="targetPoint" />
            <Array as="points">
              <mxPoint x="446" y="295.5" />
            </Array>
          </mxGeometry>
        </mxCell>
        <mxCell id="fJkiHH_dXdpL3qH0rlqj-46" value="Amazon Athena" style="outlineConnect=0;fontColor=#232F3E;gradientColor=#945DF2;gradientDirection=north;fillColor=#5A30B5;strokeColor=#ffffff;dashed=0;verticalLabelPosition=bottom;verticalAlign=top;align=center;html=1;fontSize=12;fontStyle=0;aspect=fixed;shape=mxgraph.aws4.resourceIcon;resIcon=mxgraph.aws4.athena;labelBackgroundColor=#ffffff;" vertex="1" parent="fJkiHH_dXdpL3qH0rlqj-2">
          <mxGeometry x="120" y="262" width="58" height="58" as="geometry" />
        </mxCell>
        <mxCell id="fJkiHH_dXdpL3qH0rlqj-48" value="" style="edgeStyle=orthogonalEdgeStyle;html=1;endArrow=block;elbow=vertical;startArrow=block;startFill=1;endFill=1;strokeColor=#545B64;rounded=0;" edge="1" parent="fJkiHH_dXdpL3qH0rlqj-2" source="fJkiHH_dXdpL3qH0rlqj-46">
          <mxGeometry width="100" relative="1" as="geometry">
            <mxPoint x="270" y="290.5" as="sourcePoint" />
            <mxPoint x="370" y="290.5" as="targetPoint" />
          </mxGeometry>
        </mxCell>
        <mxCell id="fJkiHH_dXdpL3qH0rlqj-41" value="" style="sketch=0;outlineConnect=0;fontColor=#232F3E;gradientColor=none;fillColor=#8C4FFF;strokeColor=none;dashed=0;verticalLabelPosition=bottom;verticalAlign=top;align=center;html=1;fontSize=12;fontStyle=0;aspect=fixed;pointerEvents=1;shape=mxgraph.aws4.glue_data_catalog;" vertex="1" parent="fJkiHH_dXdpL3qH0rlqj-2">
          <mxGeometry x="615" y="410" width="50" height="54.17" as="geometry" />
        </mxCell>
        <mxCell id="fJkiHH_dXdpL3qH0rlqj-49" value="Aws Glue DataStore&lt;br&gt;" style="text;html=1;align=center;verticalAlign=middle;resizable=0;points=[];autosize=1;strokeColor=none;fillColor=none;" vertex="1" parent="fJkiHH_dXdpL3qH0rlqj-2">
          <mxGeometry x="580" y="470" width="130" height="30" as="geometry" />
        </mxCell>
        <mxCell id="fJkiHH_dXdpL3qH0rlqj-50" value="" style="edgeStyle=orthogonalEdgeStyle;html=1;endArrow=block;elbow=vertical;startArrow=none;endFill=1;strokeColor=#545B64;rounded=0;" edge="1" parent="fJkiHH_dXdpL3qH0rlqj-2" target="fJkiHH_dXdpL3qH0rlqj-41">
          <mxGeometry width="100" relative="1" as="geometry">
            <mxPoint x="179" y="310" as="sourcePoint" />
            <mxPoint x="279" y="310" as="targetPoint" />
            <Array as="points">
              <mxPoint x="200" y="310" />
              <mxPoint x="200" y="350" />
              <mxPoint x="640" y="350" />
            </Array>
          </mxGeometry>
        </mxCell>
        <mxCell id="fJkiHH_dXdpL3qH0rlqj-12" value="" style="sketch=0;points=[[0,0,0],[0.25,0,0],[0.5,0,0],[0.75,0,0],[1,0,0],[0,1,0],[0.25,1,0],[0.5,1,0],[0.75,1,0],[1,1,0],[0,0.25,0],[0,0.5,0],[0,0.75,0],[1,0.25,0],[1,0.5,0],[1,0.75,0]];outlineConnect=0;fontColor=#232F3E;fillColor=#8C4FFF;strokeColor=#ffffff;dashed=0;verticalLabelPosition=bottom;verticalAlign=top;align=center;html=1;fontSize=12;fontStyle=0;aspect=fixed;shape=mxgraph.aws4.resourceIcon;resIcon=mxgraph.aws4.quicksight;" vertex="1" parent="fJkiHH_dXdpL3qH0rlqj-2">
          <mxGeometry x="109" y="420" width="60" height="60" as="geometry" />
        </mxCell>
        <mxCell id="fJkiHH_dXdpL3qH0rlqj-53" value="" style="edgeStyle=orthogonalEdgeStyle;html=1;endArrow=block;elbow=vertical;startArrow=block;startFill=1;endFill=1;strokeColor=#545B64;rounded=0;exitX=0.5;exitY=0;exitDx=0;exitDy=0;exitPerimeter=0;" edge="1" parent="fJkiHH_dXdpL3qH0rlqj-2" source="fJkiHH_dXdpL3qH0rlqj-12">
          <mxGeometry width="100" relative="1" as="geometry">
            <mxPoint x="130" y="410" as="sourcePoint" />
            <mxPoint x="140" y="350" as="targetPoint" />
            <Array as="points">
              <mxPoint x="139" y="410" />
              <mxPoint x="140" y="410" />
            </Array>
          </mxGeometry>
        </mxCell>
        <mxCell id="fJkiHH_dXdpL3qH0rlqj-54" value="&lt;span style=&quot;color: rgb(0, 0, 0); font-family: Helvetica; font-size: 12px; font-style: normal; font-variant-ligatures: normal; font-variant-caps: normal; font-weight: 400; letter-spacing: normal; orphans: 2; text-align: center; text-indent: 0px; text-transform: none; widows: 2; word-spacing: 0px; -webkit-text-stroke-width: 0px; background-color: rgb(251, 251, 251); text-decoration-thickness: initial; text-decoration-style: initial; text-decoration-color: initial; float: none; display: inline !important;&quot;&gt;QuickSight&lt;/span&gt;" style="text;whiteSpace=wrap;html=1;" vertex="1" parent="fJkiHH_dXdpL3qH0rlqj-2">
          <mxGeometry x="109" y="490" width="140" height="40" as="geometry" />
        </mxCell>
        <mxCell id="fJkiHH_dXdpL3qH0rlqj-59" value="" style="sketch=0;outlineConnect=0;fontColor=#232F3E;gradientColor=none;fillColor=#7AA116;strokeColor=none;dashed=0;verticalLabelPosition=bottom;verticalAlign=top;align=center;html=1;fontSize=12;fontStyle=0;aspect=fixed;pointerEvents=1;shape=mxgraph.aws4.bucket;" vertex="1" parent="fJkiHH_dXdpL3qH0rlqj-2">
          <mxGeometry x="760" y="450" width="48.08" height="50" as="geometry" />
        </mxCell>
        <mxCell id="fJkiHH_dXdpL3qH0rlqj-60" value="Query-rs-store" style="text;html=1;align=center;verticalAlign=middle;resizable=0;points=[];autosize=1;strokeColor=none;fillColor=none;" vertex="1" parent="fJkiHH_dXdpL3qH0rlqj-2">
          <mxGeometry x="734.04" y="510" width="100" height="30" as="geometry" />
        </mxCell>
        <mxCell id="fJkiHH_dXdpL3qH0rlqj-33" value="" style="aspect=fixed;sketch=0;html=1;dashed=0;whitespace=wrap;fillColor=#2875E2;strokeColor=#ffffff;points=[[0.005,0.63,0],[0.1,0.2,0],[0.9,0.2,0],[0.5,0,0],[0.995,0.63,0],[0.72,0.99,0],[0.5,1,0],[0.28,0.99,0]];shape=mxgraph.kubernetes.icon2;prIcon=api" vertex="1" parent="1">
          <mxGeometry x="210" y="45" width="50" height="48" as="geometry" />
        </mxCell>
        <mxCell id="fJkiHH_dXdpL3qH0rlqj-34" value="Riot Games API&lt;br&gt;" style="text;html=1;align=center;verticalAlign=middle;resizable=0;points=[];autosize=1;strokeColor=none;fillColor=none;" vertex="1" parent="1">
          <mxGeometry x="260" y="54" width="110" height="30" as="geometry" />
        </mxCell>
      </root>
    </mxGraphModel>
  </diagram>
</mxfile>
